<mxfile host="app.diagrams.net" agent="Mozilla/5.0 (Windows NT 10.0; Win64; x64) AppleWebKit/537.36 (KHTML, like Gecko) Chrome/141.0.0.0 Safari/537.36 Edg/141.0.0.0" version="28.2.7">
  <diagram name="第 1 页" id="iQJN-OmDK7PnJlo9vLyK">
    <mxGraphModel dx="2495" dy="934" grid="1" gridSize="10" guides="1" tooltips="1" connect="1" arrows="1" fold="1" page="1" pageScale="1" pageWidth="827" pageHeight="1169" math="0" shadow="0">
      <root>
        <mxCell id="0" />
        <mxCell id="1" parent="0" />
        <mxCell id="SI8Y3_qRKOcCDdEC2UZS-12" style="edgeStyle=orthogonalEdgeStyle;rounded=0;orthogonalLoop=1;jettySize=auto;html=1;exitX=0.5;exitY=1;exitDx=0;exitDy=0;entryX=0.5;entryY=0;entryDx=0;entryDy=0;" edge="1" parent="1" source="SI8Y3_qRKOcCDdEC2UZS-9" target="SI8Y3_qRKOcCDdEC2UZS-7">
          <mxGeometry relative="1" as="geometry" />
        </mxCell>
        <mxCell id="SI8Y3_qRKOcCDdEC2UZS-9" value="" style="rounded=1;whiteSpace=wrap;html=1;fillColor=#dae8fc;strokeColor=#6c8ebf;" vertex="1" parent="1">
          <mxGeometry x="120" y="70" width="350" height="130" as="geometry" />
        </mxCell>
        <mxCell id="SI8Y3_qRKOcCDdEC2UZS-2" value="&lt;font style=&quot;font-size: 18px;&quot;&gt;&lt;b style=&quot;&quot;&gt;Param_x&lt;/b&gt;&lt;/font&gt;" style="rounded=1;whiteSpace=wrap;html=1;strokeWidth=2;fillWeight=4;hachureGap=8;hachureAngle=45;fillColor=#fff2cc;sketch=1;strokeColor=#d6b656;" vertex="1" parent="1">
          <mxGeometry x="160" y="110" width="120" height="60" as="geometry" />
        </mxCell>
        <mxCell id="SI8Y3_qRKOcCDdEC2UZS-3" value="&lt;font style=&quot;font-size: 18px;&quot;&gt;&lt;b style=&quot;&quot;&gt;Param_grad_x&lt;/b&gt;&lt;/font&gt;" style="rounded=1;whiteSpace=wrap;html=1;strokeWidth=2;fillWeight=4;hachureGap=8;hachureAngle=45;fillColor=#f8cecc;sketch=1;strokeColor=#b85450;" vertex="1" parent="1">
          <mxGeometry x="310" y="110" width="140" height="60" as="geometry" />
        </mxCell>
        <mxCell id="SI8Y3_qRKOcCDdEC2UZS-5" value="" style="rounded=1;whiteSpace=wrap;html=1;fillColor=#f5f5f5;fontColor=#333333;strokeColor=#666666;" vertex="1" parent="1">
          <mxGeometry x="-140" y="500" width="370" height="50" as="geometry" />
        </mxCell>
        <mxCell id="SI8Y3_qRKOcCDdEC2UZS-19" style="edgeStyle=orthogonalEdgeStyle;rounded=0;orthogonalLoop=1;jettySize=auto;html=1;entryX=0.5;entryY=0;entryDx=0;entryDy=0;" edge="1" parent="1" source="SI8Y3_qRKOcCDdEC2UZS-6" target="SI8Y3_qRKOcCDdEC2UZS-18">
          <mxGeometry relative="1" as="geometry" />
        </mxCell>
        <mxCell id="SI8Y3_qRKOcCDdEC2UZS-6" value="&lt;font style=&quot;font-size: 18px;&quot;&gt;Grad_buffer&lt;/font&gt;" style="text;html=1;whiteSpace=wrap;strokeColor=none;fillColor=none;align=center;verticalAlign=middle;rounded=0;" vertex="1" parent="1">
          <mxGeometry x="10" y="570" width="60" height="30" as="geometry" />
        </mxCell>
        <mxCell id="SI8Y3_qRKOcCDdEC2UZS-7" value="" style="rounded=1;whiteSpace=wrap;html=1;fillColor=#f5f5f5;fontColor=#333333;strokeColor=#666666;" vertex="1" parent="1">
          <mxGeometry x="110" y="240" width="370" height="50" as="geometry" />
        </mxCell>
        <mxCell id="SI8Y3_qRKOcCDdEC2UZS-14" value="" style="edgeStyle=orthogonalEdgeStyle;rounded=0;orthogonalLoop=1;jettySize=auto;html=1;" edge="1" parent="1" source="SI8Y3_qRKOcCDdEC2UZS-8" target="SI8Y3_qRKOcCDdEC2UZS-13">
          <mxGeometry relative="1" as="geometry" />
        </mxCell>
        <mxCell id="SI8Y3_qRKOcCDdEC2UZS-8" value="&lt;font style=&quot;font-size: 18px;&quot;&gt;Param_buffer&lt;/font&gt;" style="text;html=1;whiteSpace=wrap;strokeColor=none;fillColor=none;align=center;verticalAlign=middle;rounded=0;" vertex="1" parent="1">
          <mxGeometry x="265" y="290" width="60" height="30" as="geometry" />
        </mxCell>
        <mxCell id="SI8Y3_qRKOcCDdEC2UZS-11" value="&lt;font style=&quot;font-size: 18px;&quot;&gt;&lt;b style=&quot;&quot;&gt;Param_x&lt;/b&gt;&lt;/font&gt;" style="rounded=1;whiteSpace=wrap;html=1;strokeWidth=2;fillWeight=4;hachureGap=8;hachureAngle=45;fillColor=#fff2cc;sketch=1;strokeColor=#d6b656;" vertex="1" parent="1">
          <mxGeometry x="110" y="240" width="120" height="50" as="geometry" />
        </mxCell>
        <mxCell id="SI8Y3_qRKOcCDdEC2UZS-15" style="edgeStyle=orthogonalEdgeStyle;rounded=0;orthogonalLoop=1;jettySize=auto;html=1;exitX=0;exitY=0.5;exitDx=0;exitDy=0;" edge="1" parent="1" source="SI8Y3_qRKOcCDdEC2UZS-13" target="SI8Y3_qRKOcCDdEC2UZS-5">
          <mxGeometry relative="1" as="geometry" />
        </mxCell>
        <mxCell id="SI8Y3_qRKOcCDdEC2UZS-21" style="edgeStyle=orthogonalEdgeStyle;rounded=0;orthogonalLoop=1;jettySize=auto;html=1;exitX=1;exitY=0.5;exitDx=0;exitDy=0;entryX=0.5;entryY=0;entryDx=0;entryDy=0;" edge="1" parent="1" source="SI8Y3_qRKOcCDdEC2UZS-13" target="SI8Y3_qRKOcCDdEC2UZS-20">
          <mxGeometry relative="1" as="geometry" />
        </mxCell>
        <mxCell id="SI8Y3_qRKOcCDdEC2UZS-13" value="&lt;font style=&quot;font-size: 18px;&quot;&gt;&lt;b&gt;is_relese_grad&lt;/b&gt;&lt;/font&gt;" style="rhombus;whiteSpace=wrap;html=1;" vertex="1" parent="1">
          <mxGeometry x="180" y="350" width="230" height="85" as="geometry" />
        </mxCell>
        <mxCell id="SI8Y3_qRKOcCDdEC2UZS-16" value="&lt;font style=&quot;font-size: 18px;&quot;&gt;No&lt;/font&gt;" style="text;html=1;whiteSpace=wrap;strokeColor=none;fillColor=none;align=center;verticalAlign=middle;rounded=0;" vertex="1" parent="1">
          <mxGeometry x="-10" y="420" width="60" height="30" as="geometry" />
        </mxCell>
        <mxCell id="SI8Y3_qRKOcCDdEC2UZS-17" value="&lt;font style=&quot;font-size: 18px;&quot;&gt;&lt;b style=&quot;&quot;&gt;Param_grad_x&lt;/b&gt;&lt;/font&gt;" style="rounded=1;whiteSpace=wrap;html=1;strokeWidth=2;fillWeight=4;hachureGap=8;hachureAngle=45;fillColor=#f8cecc;sketch=1;strokeColor=#b85450;" vertex="1" parent="1">
          <mxGeometry x="-140" y="500" width="140" height="50" as="geometry" />
        </mxCell>
        <mxCell id="SI8Y3_qRKOcCDdEC2UZS-18" value="&lt;font style=&quot;font-size: 18px;&quot;&gt;&lt;b&gt;Comm_grad&lt;/b&gt;&lt;/font&gt;" style="rounded=1;whiteSpace=wrap;html=1;fillColor=#e1d5e7;strokeColor=#9673a6;" vertex="1" parent="1">
          <mxGeometry x="-27.5" y="630" width="135" height="60" as="geometry" />
        </mxCell>
        <mxCell id="SI8Y3_qRKOcCDdEC2UZS-23" value="" style="edgeStyle=orthogonalEdgeStyle;rounded=0;orthogonalLoop=1;jettySize=auto;html=1;" edge="1" parent="1" source="SI8Y3_qRKOcCDdEC2UZS-20" target="SI8Y3_qRKOcCDdEC2UZS-22">
          <mxGeometry relative="1" as="geometry" />
        </mxCell>
        <mxCell id="SI8Y3_qRKOcCDdEC2UZS-20" value="&lt;span style=&quot;font-size: 18px;&quot;&gt;&lt;b&gt;param.add_backward&lt;/b&gt;&lt;/span&gt;&lt;div&gt;&lt;span style=&quot;font-size: 18px;&quot;&gt;&lt;b&gt;_hook&lt;/b&gt;&lt;/span&gt;&lt;/div&gt;" style="rounded=1;whiteSpace=wrap;html=1;fillColor=#b1ddf0;strokeColor=#10739e;" vertex="1" parent="1">
          <mxGeometry x="380" y="435" width="190" height="80" as="geometry" />
        </mxCell>
        <mxCell id="SI8Y3_qRKOcCDdEC2UZS-25" value="" style="edgeStyle=orthogonalEdgeStyle;rounded=0;orthogonalLoop=1;jettySize=auto;html=1;" edge="1" parent="1" source="SI8Y3_qRKOcCDdEC2UZS-22">
          <mxGeometry relative="1" as="geometry">
            <mxPoint x="475" y="635" as="targetPoint" />
          </mxGeometry>
        </mxCell>
        <mxCell id="SI8Y3_qRKOcCDdEC2UZS-22" value="&lt;font style=&quot;font-size: 18px;&quot;&gt;&lt;b&gt;backward处理到当前参数&lt;/b&gt;&lt;/font&gt;" style="whiteSpace=wrap;html=1;fillColor=#b1ddf0;strokeColor=#10739e;rounded=1;" vertex="1" parent="1">
          <mxGeometry x="400" y="540" width="150" height="70" as="geometry" />
        </mxCell>
        <mxCell id="SI8Y3_qRKOcCDdEC2UZS-26" value="" style="rounded=1;whiteSpace=wrap;html=1;fillColor=#f5f5f5;fontColor=#333333;strokeColor=#666666;" vertex="1" parent="1">
          <mxGeometry x="290" y="640" width="370" height="50" as="geometry" />
        </mxCell>
        <mxCell id="SI8Y3_qRKOcCDdEC2UZS-27" value="&lt;font style=&quot;font-size: 18px;&quot;&gt;&lt;b style=&quot;&quot;&gt;Param_grad_x&lt;/b&gt;&lt;/font&gt;" style="rounded=1;whiteSpace=wrap;html=1;strokeWidth=2;fillWeight=4;hachureGap=8;hachureAngle=45;fillColor=#f8cecc;sketch=1;strokeColor=#b85450;" vertex="1" parent="1">
          <mxGeometry x="290" y="640" width="140" height="50" as="geometry" />
        </mxCell>
        <mxCell id="SI8Y3_qRKOcCDdEC2UZS-33" value="" style="edgeStyle=orthogonalEdgeStyle;rounded=0;orthogonalLoop=1;jettySize=auto;html=1;" edge="1" parent="1" source="SI8Y3_qRKOcCDdEC2UZS-28" target="SI8Y3_qRKOcCDdEC2UZS-32">
          <mxGeometry relative="1" as="geometry" />
        </mxCell>
        <mxCell id="SI8Y3_qRKOcCDdEC2UZS-28" value="&lt;font style=&quot;font-size: 18px;&quot;&gt;Grad_buffer&lt;/font&gt;" style="text;html=1;whiteSpace=wrap;strokeColor=none;fillColor=none;align=center;verticalAlign=middle;rounded=0;" vertex="1" parent="1">
          <mxGeometry x="445" y="710" width="60" height="30" as="geometry" />
        </mxCell>
        <mxCell id="SI8Y3_qRKOcCDdEC2UZS-39" value="" style="edgeStyle=orthogonalEdgeStyle;rounded=0;orthogonalLoop=1;jettySize=auto;html=1;" edge="1" parent="1" source="SI8Y3_qRKOcCDdEC2UZS-32" target="SI8Y3_qRKOcCDdEC2UZS-34">
          <mxGeometry relative="1" as="geometry" />
        </mxCell>
        <mxCell id="SI8Y3_qRKOcCDdEC2UZS-32" value="&lt;font style=&quot;font-size: 18px;&quot;&gt;&lt;b&gt;Comm_grad&lt;/b&gt;&lt;/font&gt;" style="rounded=1;whiteSpace=wrap;html=1;fillColor=#e1d5e7;strokeColor=#9673a6;" vertex="1" parent="1">
          <mxGeometry x="407.5" y="760" width="135" height="60" as="geometry" />
        </mxCell>
        <mxCell id="SI8Y3_qRKOcCDdEC2UZS-34" value="" style="rounded=1;whiteSpace=wrap;html=1;fillColor=#f5f5f5;fontColor=#333333;strokeColor=#666666;" vertex="1" parent="1">
          <mxGeometry x="290" y="850" width="370" height="50" as="geometry" />
        </mxCell>
        <mxCell id="SI8Y3_qRKOcCDdEC2UZS-36" value="&lt;font style=&quot;font-size: 18px;&quot;&gt;Grad_buffer_clear&lt;/font&gt;" style="text;html=1;whiteSpace=wrap;strokeColor=none;fillColor=none;align=center;verticalAlign=middle;rounded=0;" vertex="1" parent="1">
          <mxGeometry x="445" y="930" width="60" height="30" as="geometry" />
        </mxCell>
      </root>
    </mxGraphModel>
  </diagram>
</mxfile>
